HIERARCHY
ROOT hip
{
	OFFSET 0.000000 0.000000 0.000000 
	CHANNELS 6 Xposition Yposition Zposition Xrotation Zrotation Yrotation
	JOINT abdomen
	{
		OFFSET 0.000000 3.402643 0.000000 
		CHANNELS 3 Xrotation Zrotation Yrotation
		JOINT chest
		{
			OFFSET 0.000000 8.438565 -0.680529 
			CHANNELS 3 Xrotation Zrotation Yrotation
			JOINT neck
			{
				OFFSET 0.000000 10.207942 -0.272212 
				CHANNELS 3 Xrotation Zrotation Yrotation
				JOINT head
				{
					OFFSET 0.000000 3.130431 0.000000 
					CHANNELS 3 Xrotation Zrotation Yrotation
					End Site
					{
						OFFSET 0.000000 3.130435 0.000000 
					}
				}
			}
			JOINT lCollar
			{
				OFFSET 3.470700 6.669187 -0.816635 
				CHANNELS 3 Yrotation Zrotation Xrotation
				JOINT lShldr
				{
					OFFSET 3.198488 0.000000 0.000000 
					CHANNELS 3 Zrotation Yrotation Xrotation
					JOINT lForeArm
					{
						OFFSET 10.139888 0.000000 0.000000 
						CHANNELS 3 Yrotation Zrotation Xrotation
						JOINT lHand
						{
							OFFSET 8.370511 0.000000 0.000000 
							CHANNELS 3 Zrotation Yrotation Xrotation
							End Site
							{
								OFFSET 4.083176 0.000000 0.000000 
							}
						}
					}
				}
			}
			JOINT rCollar
			{
				OFFSET -3.470700 6.669187 -0.816635 
				CHANNELS 3 Yrotation Zrotation Xrotation
				JOINT rShldr
				{
					OFFSET -3.198488 0.000000 0.000000 
					CHANNELS 3 Zrotation Yrotation Xrotation
					JOINT rForeArm
					{
						OFFSET -10.139888 0.000000 0.000000 
						CHANNELS 3 Yrotation Zrotation Xrotation
						JOINT rHand
						{
							OFFSET -8.370511 0.000000 0.000000 
							CHANNELS 3 Zrotation Yrotation Xrotation
							End Site
							{
								OFFSET -4.083176 0.000000 0.000000 
							}
						}
					}
				}
			}
		}
	}
	JOINT lThigh
	{
		OFFSET 5.308129 -1.633274 1.361059 
		CHANNELS 3 Xrotation Zrotation Yrotation
		JOINT lShin
		{
			OFFSET -2.041588 -20.007561 0.000000 
			CHANNELS 3 Xrotation Zrotation Yrotation
			JOINT lFoot
			{
				OFFSET 0.000000 -19.190928 -1.224953 
				CHANNELS 3 Xrotation Yrotation Zrotation
				End Site
				{
					OFFSET 0.000000 -2.449906 4.627600 
				}
			}
		}
	}
	JOINT rThigh
	{
		OFFSET -5.308129 -1.633274 1.361059 
		CHANNELS 3 Xrotation Zrotation Yrotation
		JOINT rShin
		{
			OFFSET 2.041588 -20.007561 0.000000 
			CHANNELS 3 Xrotation Zrotation Yrotation
			JOINT rFoot
			{
				OFFSET 0.000000 -19.190928 -1.224953 
				CHANNELS 3 Xrotation Yrotation Zrotation
				End Site
				{
					OFFSET 0.000000 -2.449906 4.627600 
				}
			}
		}
	}
}
MOTION
Frames: 8
Frame Time: 0.016667
7.361861 42.470634 85.321037 2.844890 2.672490 0.972912 -13.633600 0.939936 0.380547 23.877100 -0.506960 0.449018 52.425499 -3.982230 1.436200 -8.603520 0.000000 0.000000 2.000000 -2.000000 0.000000 -1.086890 -57.246799 154.388000 41.631302 -0.317036 0.090883 5.506530 0.844364 -158.938995 -2.000000 2.000000 0.000000 -1.418630 64.943497 144.203995 -40.058998 0.319489 0.087996 5.171920 4.270800 -153.938995 -18.143358 1.027166 -3.025789 24.642170 2.927067 1.837410 -8.322294 7.119620 2.024614 8.869461 -2.948363 -0.148321 17.339336 -8.135402 -1.026462 -23.250029 -6.319370 -0.693083 
7.666129 42.551113 85.785217 2.883950 2.652890 -0.032110 -13.680300 0.838928 0.773816 23.662300 -0.633833 0.619802 52.244801 -4.171450 1.457420 -8.603520 0.000000 0.000000 2.000000 -2.000000 0.000000 -1.409620 -57.079102 155.179001 41.914501 -0.316586 0.091387 5.504050 0.883357 -159.367996 -2.000000 2.000000 0.000000 -0.273626 64.775002 145.453003 -39.961300 0.319639 0.087818 5.154710 4.296210 -154.154007 -17.428905 1.033216 -2.411477 24.622126 2.934103 1.848846 -9.125776 7.055637 2.137448 8.616371 -3.360152 0.701248 18.210794 -7.842679 -1.062415 -22.424967 -6.776177 -0.892426 
7.964107 42.666775 86.281868 2.884470 2.867460 -0.900194 -13.541800 0.711843 1.015040 23.750099 -0.546026 0.711631 52.296600 -4.251110 1.510260 -8.603520 0.000000 0.000000 2.000000 -2.000000 0.000000 -1.456980 -56.775902 155.382996 42.090302 -0.316305 0.091698 5.502850 0.883803 -159.445999 -2.000000 2.000000 0.000000 0.050993 64.812897 146.087006 -39.902699 0.319729 0.087710 5.169000 4.272230 -153.977997 -16.450424 0.718097 -1.582913 24.258722 2.920473 1.821807 -9.683002 6.947577 2.200746 8.440647 -4.154061 1.236983 19.293335 -7.495239 -1.111555 -21.962969 -6.161365 -0.828588 
8.234144 42.794899 86.743462 3.031380 2.954850 -1.776890 -13.557700 0.602119 1.440200 23.652500 -0.624088 0.893876 52.051498 -4.104430 1.730980 -8.603520 0.000000 0.000000 2.000000 -2.000000 0.000000 -1.292950 -56.960400 155.862000 42.080502 -0.316321 0.091681 5.498180 0.902742 -159.552994 -2.000000 2.000000 0.000000 0.735133 64.655296 146.761002 -39.424198 0.320458 0.086832 5.216640 4.214570 -153.363007 -15.696449 0.528421 -0.967174 23.758455 2.903003 1.805282 -10.001018 7.249391 2.337571 8.024171 -4.796778 1.521892 20.294422 -7.127727 -1.168654 -20.996689 -5.875296 -0.840740 
8.508295 42.918091 87.180801 3.363470 2.827160 -2.480120 -13.555400 0.531699 1.666560 23.681900 -0.692328 0.987475 51.636501 -4.297740 1.749120 -8.603520 0.000000 0.000000 2.000000 -2.000000 0.000000 -1.369640 -56.598099 156.291000 42.412498 -0.315788 0.092267 5.498180 0.902742 -159.552994 -2.000000 2.000000 0.000000 1.116840 64.556396 147.356003 -39.414501 0.320472 0.086814 5.226710 4.209470 -153.225998 -15.192986 0.452423 -0.616569 23.266232 2.893392 1.771389 -10.317268 7.472522 2.447801 7.344406 -5.377979 1.357302 21.382610 -6.671556 -1.234022 -20.129637 -5.025568 -0.806763 
8.752237 43.048412 87.598137 3.764040 2.728490 -2.818350 -13.720600 0.457455 1.744910 23.466999 -0.702218 1.009110 51.632702 -4.619760 1.550890 -8.603520 0.000000 0.000000 2.000000 -2.000000 0.000000 -1.389820 -56.577599 156.729996 42.402802 -0.315804 0.092250 5.498020 0.902798 -159.563004 -2.000000 2.000000 0.000000 2.045830 64.417900 148.235001 -39.287498 0.320664 0.086579 5.252350 4.168400 -152.826004 -14.890984 0.288987 -0.577596 22.846811 2.863137 1.771456 -10.710556 7.683124 2.581273 6.666754 -5.777084 1.351310 22.299988 -6.220935 -1.289196 -18.938953 -4.772908 -0.932739 
8.974588 43.171604 88.017715 4.037210 2.552250 -3.052090 -13.876500 0.407547 1.777730 23.213100 -0.663349 1.014030 50.959801 -4.772690 1.695700 -8.603520 0.000000 0.000000 2.000000 -2.000000 0.000000 -1.565620 -56.420200 157.296005 42.490700 -0.315662 0.092405 5.492030 0.932601 -159.953995 -2.000000 2.000000 0.000000 2.662820 64.337997 149.113998 -39.268002 0.320694 0.086543 5.248300 4.181480 -152.942993 -14.275868 0.210052 -0.713202 22.080000 2.837930 1.718873 -10.702025 8.032840 2.655149 5.958988 -6.151953 0.877055 23.578104 -5.819407 -1.360691 -17.524485 -4.904443 -1.149082 
9.167675 43.279224 88.413147 4.174260 2.610250 -3.158920 -13.710900 0.323830 1.747510 23.339899 -0.438935 0.984446 51.125000 -5.132850 1.583860 -8.603520 0.000000 0.000000 2.000000 -2.000000 0.000000 -1.016710 -56.206299 156.847000 42.383202 -0.315835 0.092216 5.497100 0.903137 -159.621994 -2.000000 2.000000 0.000000 2.574090 64.358299 148.751999 -39.297298 0.320650 0.086597 5.270090 4.142240 -152.591995 -13.721061 -0.081917 -0.735674 21.578226 2.823401 1.684589 -10.950454 8.074852 2.697273 5.277693 -6.545499 1.157469 25.203390 -5.348157 -1.508803 -16.491627 -5.031090 -1.366091 
